<svg width="87" height="25" viewBox="0 0 87 25" fill="none" xmlns="http://www.w3.org/2000/svg">
<g clip-path="url(#clip0_1_4852)">
<path d="M14.961 3.77933C15.6409 2.84556 16.1022 1.59177 15.9805 0.310547C14.9853 0.364888 13.7709 1.03153 13.0678 1.96604C12.4364 2.7663 11.8777 4.07258 12.0233 5.30009C13.1405 5.40651 14.2566 4.6869 14.961 3.77933Z" fill="black"/>
<path d="M16.3801 5.31791C14.559 5.20805 13.0106 6.36459 12.141 6.36459C11.2709 6.36459 9.93914 5.37327 8.49877 5.39998C6.62405 5.42787 4.88452 6.50133 3.93317 8.20863C1.97642 11.624 3.41678 16.6903 5.31962 19.472C6.24369 20.8482 7.35733 22.3635 8.82474 22.3091C10.2112 22.254 10.7546 21.3999 12.4399 21.3999C14.124 21.3999 14.6135 22.3091 16.0811 22.2815C17.6031 22.254 18.5546 20.9047 19.4787 19.5271C20.5387 17.9583 20.9727 16.4435 21 16.3604C20.9727 16.3328 18.0652 15.2033 18.0382 11.8162C18.0108 8.98023 20.321 7.63125 20.4297 7.54759C19.1251 5.59359 17.0867 5.37327 16.3801 5.31791Z" fill="black"/>
</g>
<path d="M30.8091 16.3105H29.3182L32.6682 7.00146H34.2909L37.6409 16.3105H36.15L33.5182 8.69236H33.4455L30.8091 16.3105ZM31.0591 12.6651H35.8955V13.8469H31.0591V12.6651ZM38.8761 18.9287V9.32873H40.2034V10.4605H40.317C40.3958 10.3151 40.5095 10.1469 40.658 9.956C40.8064 9.76509 41.0125 9.59843 41.2761 9.456C41.5398 9.31055 41.8883 9.23782 42.3216 9.23782C42.8852 9.23782 43.3883 9.38024 43.8307 9.66509C44.2731 9.94994 44.6201 10.3605 44.8716 10.8969C45.1261 11.4333 45.2534 12.0787 45.2534 12.8333C45.2534 13.5878 45.1277 14.2348 44.8761 14.7742C44.6246 15.3105 44.2792 15.7242 43.8398 16.0151C43.4004 16.303 42.8989 16.4469 42.3352 16.4469C41.911 16.4469 41.564 16.3757 41.2943 16.2333C41.0277 16.0908 40.8186 15.9242 40.667 15.7333C40.5155 15.5424 40.3989 15.3727 40.317 15.2242H40.2352V18.9287H38.8761ZM40.208 12.8196C40.208 13.3105 40.2792 13.7408 40.4216 14.1105C40.564 14.4802 40.7701 14.7696 41.0398 14.9787C41.3095 15.1848 41.6398 15.2878 42.0307 15.2878C42.4367 15.2878 42.7761 15.1802 43.0489 14.9651C43.3216 14.7469 43.5277 14.4515 43.667 14.0787C43.8095 13.706 43.8807 13.2863 43.8807 12.8196C43.8807 12.359 43.811 11.9454 43.6716 11.5787C43.5352 11.2121 43.3292 10.9227 43.0534 10.7105C42.7807 10.4984 42.4398 10.3924 42.0307 10.3924C41.6367 10.3924 41.3034 10.4939 41.0307 10.6969C40.761 10.8999 40.5564 11.1833 40.417 11.5469C40.2777 11.9105 40.208 12.3348 40.208 12.8196ZM46.7761 18.9287V9.32873H48.1034V10.4605H48.217C48.2958 10.3151 48.4095 10.1469 48.558 9.956C48.7064 9.76509 48.9125 9.59843 49.1761 9.456C49.4398 9.31055 49.7883 9.23782 50.2216 9.23782C50.7852 9.23782 51.2883 9.38024 51.7307 9.66509C52.1731 9.94994 52.5201 10.3605 52.7716 10.8969C53.0261 11.4333 53.1534 12.0787 53.1534 12.8333C53.1534 13.5878 53.0277 14.2348 52.7761 14.7742C52.5246 15.3105 52.1792 15.7242 51.7398 16.0151C51.3004 16.303 50.7989 16.4469 50.2352 16.4469C49.811 16.4469 49.464 16.3757 49.1943 16.2333C48.9277 16.0908 48.7186 15.9242 48.567 15.7333C48.4155 15.5424 48.2989 15.3727 48.217 15.2242H48.1352V18.9287H46.7761ZM48.108 12.8196C48.108 13.3105 48.1792 13.7408 48.3216 14.1105C48.464 14.4802 48.6701 14.7696 48.9398 14.9787C49.2095 15.1848 49.5398 15.2878 49.9307 15.2878C50.3367 15.2878 50.6761 15.1802 50.9489 14.9651C51.2216 14.7469 51.4277 14.4515 51.567 14.0787C51.7095 13.706 51.7807 13.2863 51.7807 12.8196C51.7807 12.359 51.711 11.9454 51.5716 11.5787C51.4352 11.2121 51.2292 10.9227 50.9534 10.7105C50.6807 10.4984 50.3398 10.3924 49.9307 10.3924C49.5367 10.3924 49.2034 10.4939 48.9307 10.6969C48.661 10.8999 48.4564 11.1833 48.317 11.5469C48.1777 11.9105 48.108 12.3348 48.108 12.8196ZM59.8625 9.44691C59.814 9.01661 59.614 8.68327 59.2625 8.44691C58.911 8.20752 58.4686 8.08782 57.9352 8.08782C57.5534 8.08782 57.2231 8.14843 56.9443 8.26964C56.6655 8.38782 56.4489 8.55146 56.2943 8.76055C56.1428 8.96661 56.067 9.20146 56.067 9.46509C56.067 9.6863 56.1186 9.87721 56.2216 10.0378C56.3277 10.1984 56.4655 10.3333 56.6352 10.4424C56.808 10.5484 56.9928 10.6378 57.1898 10.7105C57.3867 10.7802 57.5761 10.8378 57.758 10.8833L58.667 11.1196C58.964 11.1924 59.2686 11.2908 59.5807 11.4151C59.8928 11.5393 60.1822 11.703 60.4489 11.906C60.7155 12.109 60.9307 12.3605 61.0943 12.6605C61.261 12.9605 61.3443 13.3196 61.3443 13.7378C61.3443 14.2651 61.208 14.7333 60.9352 15.1424C60.6655 15.5515 60.2731 15.8742 59.758 16.1105C59.2458 16.3469 58.6261 16.4651 57.8989 16.4651C57.2019 16.4651 56.5989 16.3545 56.0898 16.1333C55.5807 15.9121 55.1822 15.5984 54.8943 15.1924C54.6064 14.7833 54.4473 14.2984 54.417 13.7378H55.8261C55.8534 14.0742 55.9625 14.3545 56.1534 14.5787C56.3473 14.7999 56.5943 14.9651 56.8943 15.0742C57.1973 15.1802 57.5292 15.2333 57.8898 15.2333C58.2867 15.2333 58.6398 15.1712 58.9489 15.0469C59.261 14.9196 59.5064 14.7439 59.6852 14.5196C59.864 14.2924 59.9534 14.0272 59.9534 13.7242C59.9534 13.4484 59.8746 13.2227 59.717 13.0469C59.5625 12.8712 59.3519 12.7257 59.0852 12.6105C58.8216 12.4954 58.5231 12.3939 58.1898 12.306L57.0898 12.006C56.3443 11.803 55.7534 11.5045 55.317 11.1105C54.8837 10.7166 54.667 10.1954 54.667 9.54691C54.667 9.01055 54.8125 8.54236 55.1034 8.14236C55.3943 7.74236 55.7883 7.43176 56.2852 7.21055C56.7822 6.9863 57.3428 6.87418 57.967 6.87418C58.5973 6.87418 59.1534 6.98479 59.6352 7.206C60.1201 7.42721 60.5019 7.73176 60.7807 8.11964C61.0595 8.50449 61.2049 8.94691 61.217 9.44691H59.8625ZM66.1727 9.32873V10.4196H62.3591V9.32873H66.1727ZM63.3818 7.656H64.7409V14.2605C64.7409 14.5242 64.7803 14.7227 64.8591 14.856C64.9379 14.9863 65.0394 15.0757 65.1636 15.1242C65.2909 15.1696 65.4288 15.1924 65.5773 15.1924C65.6864 15.1924 65.7818 15.1848 65.8636 15.1696C65.9455 15.1545 66.0091 15.1424 66.0545 15.1333L66.3 16.256C66.2212 16.2863 66.1091 16.3166 65.9636 16.3469C65.8182 16.3802 65.6364 16.3984 65.4182 16.4015C65.0606 16.4075 64.7273 16.3439 64.4182 16.2105C64.1091 16.0772 63.8591 15.8712 63.6682 15.5924C63.4773 15.3136 63.3818 14.9636 63.3818 14.5424V7.656ZM70.542 16.4515C69.8875 16.4515 69.3163 16.3015 68.8284 16.0015C68.3405 15.7015 67.9617 15.2818 67.692 14.7424C67.4223 14.203 67.2875 13.5727 67.2875 12.8515C67.2875 12.1272 67.4223 11.4939 67.692 10.9515C67.9617 10.409 68.3405 9.98782 68.8284 9.68782C69.3163 9.38782 69.8875 9.23782 70.542 9.23782C71.1966 9.23782 71.7678 9.38782 72.2557 9.68782C72.7436 9.98782 73.1223 10.409 73.392 10.9515C73.6617 11.4939 73.7966 12.1272 73.7966 12.8515C73.7966 13.5727 73.6617 14.203 73.392 14.7424C73.1223 15.2818 72.7436 15.7015 72.2557 16.0015C71.7678 16.3015 71.1966 16.4515 70.542 16.4515ZM70.5466 15.3105C70.9708 15.3105 71.3223 15.1984 71.6011 14.9742C71.8799 14.7499 72.086 14.4515 72.2193 14.0787C72.3557 13.706 72.4239 13.2954 72.4239 12.8469C72.4239 12.4015 72.3557 11.9924 72.2193 11.6196C72.086 11.2439 71.8799 10.9424 71.6011 10.7151C71.3223 10.4878 70.9708 10.3742 70.5466 10.3742C70.1193 10.3742 69.7648 10.4878 69.483 10.7151C69.2042 10.9424 68.9966 11.2439 68.8602 11.6196C68.7269 11.9924 68.6602 12.4015 68.6602 12.8469C68.6602 13.2954 68.7269 13.706 68.8602 14.0787C68.9966 14.4515 69.2042 14.7499 69.483 14.9742C69.7648 15.1984 70.1193 15.3105 70.5466 15.3105ZM75.3136 16.3105V9.32873H76.6273V10.4378H76.7C76.8273 10.0621 77.0515 9.76661 77.3727 9.55146C77.697 9.33327 78.0636 9.22418 78.4727 9.22418C78.5576 9.22418 78.6576 9.22721 78.7727 9.23327C78.8909 9.23933 78.9833 9.24691 79.05 9.256V10.556C78.9955 10.5408 78.8985 10.5242 78.7591 10.506C78.6197 10.4848 78.4803 10.4742 78.3409 10.4742C78.0197 10.4742 77.7333 10.5424 77.4818 10.6787C77.2333 10.8121 77.0364 10.9984 76.8909 11.2378C76.7455 11.4742 76.6727 11.7439 76.6727 12.0469V16.3105H75.3136ZM82.9852 16.4515C82.2973 16.4515 81.7049 16.3045 81.208 16.0105C80.714 15.7136 80.3322 15.2969 80.0625 14.7605C79.7958 14.2212 79.6625 13.5893 79.6625 12.8651C79.6625 12.1499 79.7958 11.5196 80.0625 10.9742C80.3322 10.4287 80.708 10.003 81.1898 9.69691C81.6746 9.39085 82.2413 9.23782 82.8898 9.23782C83.2837 9.23782 83.6655 9.30297 84.0352 9.43327C84.4049 9.56358 84.7367 9.76812 85.0307 10.0469C85.3246 10.3257 85.5564 10.6878 85.7261 11.1333C85.8958 11.5757 85.9807 12.1136 85.9807 12.7469V13.2287H80.4307V12.2105H84.6489C84.6489 11.853 84.5761 11.5363 84.4307 11.2605C84.2852 10.9818 84.0807 10.7621 83.817 10.6015C83.5564 10.4408 83.2504 10.3605 82.8989 10.3605C82.517 10.3605 82.1837 10.4545 81.8989 10.6424C81.617 10.8272 81.3989 11.0696 81.2443 11.3696C81.0928 11.6666 81.017 11.9893 81.017 12.3378V13.1333C81.017 13.5999 81.0989 13.9969 81.2625 14.3242C81.4292 14.6515 81.661 14.9015 81.958 15.0742C82.2549 15.2439 82.6019 15.3287 82.9989 15.3287C83.2564 15.3287 83.4913 15.2924 83.7034 15.2196C83.9155 15.1439 84.0989 15.0318 84.2534 14.8833C84.408 14.7348 84.5261 14.5515 84.608 14.3333L85.8943 14.5651C85.7913 14.9439 85.6064 15.2757 85.3398 15.5605C85.0761 15.8424 84.7443 16.0621 84.3443 16.2196C83.9473 16.3742 83.4943 16.4515 82.9852 16.4515Z" fill="#1F1F26"/>
<defs>
<clipPath id="clip0_1_4852">
<rect width="24" height="24" fill="white" transform="translate(0 0.310547)"/>
</clipPath>
</defs>
</svg>
