<svg width="103" height="25" viewBox="0 0 103 25" fill="none" xmlns="http://www.w3.org/2000/svg">
<g clip-path="url(#clip0_1_4858)">
<path d="M3.02656 0.710938C2.74662 0.990871 2.56 1.45743 2.56 2.0173V22.6392C2.56 23.199 2.74662 23.6656 3.02656 23.9455L3.11987 24.0389L14.6905 12.4682L3.02656 0.710938Z" fill="url(#paint0_linear_1_4858)"/>
<path d="M18.5163 16.2936L14.6905 12.4679L18.5163 8.54883L23.0885 11.1615C24.3949 11.908 24.3949 13.121 23.0885 13.8675L18.5163 16.2936Z" fill="url(#paint1_linear_1_4858)"/>
<path d="M18.5163 16.2945L14.6905 12.4688L3.02655 23.9462C3.49311 24.4127 4.14629 24.4127 4.98609 24.0395L18.5163 16.2945Z" fill="url(#paint2_linear_1_4858)"/>
<path d="M18.5163 8.54877L4.89278 0.617286C4.14629 0.150728 3.3998 0.244039 3.02655 0.710597L14.6905 12.4678L18.5163 8.54877Z" fill="url(#paint3_linear_1_4858)"/>
</g>
<path d="M36.8827 9.94236C36.7948 9.66661 36.6767 9.41964 36.5282 9.20146C36.3827 8.98024 36.2085 8.79236 36.0055 8.63782C35.8024 8.48024 35.5706 8.36055 35.31 8.27873C35.0524 8.19691 34.7691 8.156 34.46 8.156C33.9358 8.156 33.463 8.29085 33.0418 8.56055C32.6206 8.83024 32.2873 9.2257 32.0418 9.74691C31.7994 10.2651 31.6782 10.8999 31.6782 11.6515C31.6782 12.406 31.8009 13.0439 32.0464 13.5651C32.2918 14.0863 32.6282 14.4818 33.0555 14.7515C33.4827 15.0212 33.9691 15.156 34.5145 15.156C35.0206 15.156 35.4615 15.053 35.8373 14.8469C36.2161 14.6408 36.5085 14.3499 36.7145 13.9742C36.9236 13.5954 37.0282 13.1499 37.0282 12.6378L37.3918 12.706H34.7282V11.5469H38.3873V12.606C38.3873 13.3878 38.2206 14.0666 37.8873 14.6424C37.557 15.2151 37.0994 15.6575 36.5145 15.9696C35.9327 16.2818 35.2661 16.4378 34.5145 16.4378C33.6721 16.4378 32.9327 16.2439 32.2964 15.856C31.663 15.4681 31.1691 14.9181 30.8145 14.206C30.46 13.4908 30.2827 12.6424 30.2827 11.6605C30.2827 10.9181 30.3858 10.2515 30.5918 9.66055C30.7979 9.06964 31.0873 8.56812 31.46 8.156C31.8358 7.74085 32.2767 7.42418 32.7827 7.206C33.2918 6.98479 33.8479 6.87418 34.4509 6.87418C34.9539 6.87418 35.4221 6.94843 35.8555 7.09691C36.2918 7.24539 36.6797 7.456 37.0191 7.72873C37.3615 8.00146 37.6448 8.3257 37.8691 8.70146C38.0933 9.07418 38.2448 9.48782 38.3236 9.94236H36.8827ZM43.002 16.4515C42.3475 16.4515 41.7763 16.3015 41.2884 16.0015C40.8005 15.7015 40.4217 15.2818 40.152 14.7424C39.8823 14.203 39.7475 13.5727 39.7475 12.8515C39.7475 12.1272 39.8823 11.4939 40.152 10.9515C40.4217 10.409 40.8005 9.98782 41.2884 9.68782C41.7763 9.38782 42.3475 9.23782 43.002 9.23782C43.6566 9.23782 44.2278 9.38782 44.7157 9.68782C45.2036 9.98782 45.5823 10.409 45.852 10.9515C46.1217 11.4939 46.2566 12.1272 46.2566 12.8515C46.2566 13.5727 46.1217 14.203 45.852 14.7424C45.5823 15.2818 45.2036 15.7015 44.7157 16.0015C44.2278 16.3015 43.6566 16.4515 43.002 16.4515ZM43.0066 15.3105C43.4308 15.3105 43.7823 15.1984 44.0611 14.9742C44.3399 14.7499 44.546 14.4515 44.6793 14.0787C44.8157 13.706 44.8839 13.2954 44.8839 12.8469C44.8839 12.4015 44.8157 11.9924 44.6793 11.6196C44.546 11.2439 44.3399 10.9424 44.0611 10.7151C43.7823 10.4878 43.4308 10.3742 43.0066 10.3742C42.5793 10.3742 42.2248 10.4878 41.943 10.7151C41.6642 10.9424 41.4566 11.2439 41.3202 11.6196C41.1869 11.9924 41.1202 12.4015 41.1202 12.8469C41.1202 13.2954 41.1869 13.706 41.3202 14.0787C41.4566 14.4515 41.6642 14.7499 41.943 14.9742C42.2248 15.1984 42.5793 15.3105 43.0066 15.3105ZM50.7145 16.4515C50.06 16.4515 49.4888 16.3015 49.0009 16.0015C48.513 15.7015 48.1342 15.2818 47.8645 14.7424C47.5948 14.203 47.46 13.5727 47.46 12.8515C47.46 12.1272 47.5948 11.4939 47.8645 10.9515C48.1342 10.409 48.513 9.98782 49.0009 9.68782C49.4888 9.38782 50.06 9.23782 50.7145 9.23782C51.3691 9.23782 51.9403 9.38782 52.4282 9.68782C52.9161 9.98782 53.2948 10.409 53.5645 10.9515C53.8342 11.4939 53.9691 12.1272 53.9691 12.8515C53.9691 13.5727 53.8342 14.203 53.5645 14.7424C53.2948 15.2818 52.9161 15.7015 52.4282 16.0015C51.9403 16.3015 51.3691 16.4515 50.7145 16.4515ZM50.7191 15.3105C51.1433 15.3105 51.4948 15.1984 51.7736 14.9742C52.0524 14.7499 52.2585 14.4515 52.3918 14.0787C52.5282 13.706 52.5964 13.2954 52.5964 12.8469C52.5964 12.4015 52.5282 11.9924 52.3918 11.6196C52.2585 11.2439 52.0524 10.9424 51.7736 10.7151C51.4948 10.4878 51.1433 10.3742 50.7191 10.3742C50.2918 10.3742 49.9373 10.4878 49.6555 10.7151C49.3767 10.9424 49.1691 11.2439 49.0327 11.6196C48.8994 11.9924 48.8327 12.4015 48.8327 12.8469C48.8327 13.2954 48.8994 13.706 49.0327 14.0787C49.1691 14.4515 49.3767 14.7499 49.6555 14.9742C49.9373 15.1984 50.2918 15.3105 50.7191 15.3105ZM58.4134 19.0742C57.8589 19.0742 57.3816 19.0015 56.9816 18.856C56.5846 18.7105 56.2604 18.5181 56.0089 18.2787C55.7573 18.0393 55.5695 17.7772 55.4452 17.4924L56.6134 17.0105C56.6952 17.1439 56.8043 17.2848 56.9407 17.4333C57.0801 17.5848 57.268 17.7136 57.5043 17.8196C57.7437 17.9257 58.0513 17.9787 58.427 17.9787C58.9422 17.9787 59.368 17.853 59.7043 17.6015C60.0407 17.353 60.2089 16.956 60.2089 16.4105V15.0378H60.1225C60.0407 15.1863 59.9225 15.3515 59.768 15.5333C59.6164 15.7151 59.4073 15.8727 59.1407 16.006C58.874 16.1393 58.527 16.206 58.0998 16.206C57.5483 16.206 57.0513 16.0772 56.6089 15.8196C56.1695 15.559 55.821 15.1757 55.5634 14.6696C55.3089 14.1605 55.1816 13.5348 55.1816 12.7924C55.1816 12.0499 55.3073 11.4136 55.5589 10.8833C55.8134 10.353 56.1619 9.94691 56.6043 9.66509C57.0467 9.38024 57.5483 9.23782 58.1089 9.23782C58.5422 9.23782 58.8922 9.31055 59.1589 9.456C59.4255 9.59843 59.6331 9.76509 59.7816 9.956C59.9331 10.1469 60.0498 10.3151 60.1316 10.4605H60.2316V9.32873H61.5634V16.4651C61.5634 17.0651 61.424 17.5575 61.1452 17.9424C60.8664 18.3272 60.4892 18.6121 60.0134 18.7969C59.5407 18.9818 59.0073 19.0742 58.4134 19.0742ZM58.3998 15.0787C58.7907 15.0787 59.121 14.9878 59.3907 14.806C59.6634 14.6212 59.8695 14.3575 60.0089 14.0151C60.1513 13.6696 60.2225 13.256 60.2225 12.7742C60.2225 12.3045 60.1528 11.8908 60.0134 11.5333C59.874 11.1757 59.6695 10.8969 59.3998 10.6969C59.1301 10.4939 58.7967 10.3924 58.3998 10.3924C57.9907 10.3924 57.6498 10.4984 57.377 10.7105C57.1043 10.9196 56.8983 11.2045 56.7589 11.5651C56.6225 11.9257 56.5543 12.3287 56.5543 12.7742C56.5543 13.2318 56.624 13.6333 56.7634 13.9787C56.9028 14.3242 57.1089 14.5939 57.3816 14.7878C57.6573 14.9818 57.9967 15.0787 58.3998 15.0787ZM64.7452 7.00146V16.3105H63.3861V7.00146H64.7452ZM69.5827 16.4515C68.8948 16.4515 68.3024 16.3045 67.8055 16.0105C67.3115 15.7136 66.9297 15.2969 66.66 14.7605C66.3933 14.2212 66.26 13.5893 66.26 12.8651C66.26 12.1499 66.3933 11.5196 66.66 10.9742C66.9297 10.4287 67.3055 10.003 67.7873 9.69691C68.2721 9.39085 68.8388 9.23782 69.4873 9.23782C69.8812 9.23782 70.263 9.30297 70.6327 9.43327C71.0024 9.56358 71.3342 9.76812 71.6282 10.0469C71.9221 10.3257 72.1539 10.6878 72.3236 11.1333C72.4933 11.5757 72.5782 12.1136 72.5782 12.7469V13.2287H67.0282V12.2105H71.2464C71.2464 11.853 71.1736 11.5363 71.0282 11.2605C70.8827 10.9818 70.6782 10.7621 70.4145 10.6015C70.1539 10.4408 69.8479 10.3605 69.4964 10.3605C69.1145 10.3605 68.7812 10.4545 68.4964 10.6424C68.2145 10.8272 67.9964 11.0696 67.8418 11.3696C67.6903 11.6666 67.6145 11.9893 67.6145 12.3378V13.1333C67.6145 13.5999 67.6964 13.9969 67.86 14.3242C68.0267 14.6515 68.2585 14.9015 68.5555 15.0742C68.8524 15.2439 69.1994 15.3287 69.5964 15.3287C69.8539 15.3287 70.0888 15.2924 70.3009 15.2196C70.513 15.1439 70.6964 15.0318 70.8509 14.8833C71.0055 14.7348 71.1236 14.5515 71.2055 14.3333L72.4918 14.5651C72.3888 14.9439 72.2039 15.2757 71.9373 15.5605C71.6736 15.8424 71.3418 16.0621 70.9418 16.2196C70.5448 16.3742 70.0918 16.4515 69.5827 16.4515ZM77.5827 16.3105V7.00146H80.9009C81.6251 7.00146 82.2251 7.13327 82.7009 7.39691C83.1767 7.66055 83.5327 8.02115 83.7691 8.47873C84.0055 8.93327 84.1236 9.4454 84.1236 10.0151C84.1236 10.5878 84.0039 11.103 83.7645 11.5605C83.5282 12.0151 83.1706 12.3757 82.6918 12.6424C82.2161 12.906 81.6176 13.0378 80.8964 13.0378H78.6145V11.8469H80.7691C81.2267 11.8469 81.5979 11.7681 81.8827 11.6105C82.1676 11.4499 82.3767 11.2318 82.51 10.956C82.6433 10.6802 82.71 10.3666 82.71 10.0151C82.71 9.66358 82.6433 9.35146 82.51 9.07873C82.3767 8.806 82.1661 8.59236 81.8782 8.43782C81.5933 8.28327 81.2176 8.206 80.7509 8.206H78.9873V16.3105H77.5827ZM87.0202 7.00146V16.3105H85.6611V7.00146H87.0202ZM90.8805 16.4651C90.438 16.4651 90.038 16.3833 89.6805 16.2196C89.3229 16.053 89.0395 15.8121 88.8305 15.4969C88.6244 15.1818 88.5214 14.7954 88.5214 14.3378C88.5214 13.9439 88.5971 13.6196 88.7486 13.3651C88.9001 13.1105 89.1047 12.909 89.3623 12.7605C89.6198 12.6121 89.9077 12.4999 90.2259 12.4242C90.5441 12.3484 90.8683 12.2908 91.1986 12.2515C91.6168 12.203 91.9562 12.1636 92.2168 12.1333C92.4774 12.0999 92.6668 12.0469 92.785 11.9742C92.9032 11.9015 92.9623 11.7833 92.9623 11.6196V11.5878C92.9623 11.1908 92.8501 10.8833 92.6259 10.6651C92.4047 10.4469 92.0744 10.3378 91.635 10.3378C91.1774 10.3378 90.8168 10.4393 90.5532 10.6424C90.2926 10.8424 90.1123 11.0651 90.0123 11.3105L88.735 11.0196C88.8865 10.5954 89.1077 10.253 89.3986 9.99236C89.6926 9.72873 90.0305 9.53782 90.4123 9.41964C90.7941 9.29843 91.1956 9.23782 91.6168 9.23782C91.8956 9.23782 92.1911 9.27115 92.5032 9.33782C92.8183 9.40146 93.1123 9.51964 93.385 9.69236C93.6608 9.86509 93.8865 10.1121 94.0623 10.4333C94.238 10.7515 94.3259 11.1651 94.3259 11.6742V16.3105H92.9986V15.356H92.9441C92.8562 15.5318 92.7244 15.7045 92.5486 15.8742C92.3729 16.0439 92.1471 16.1848 91.8714 16.2969C91.5956 16.409 91.2653 16.4651 90.8805 16.4651ZM91.1759 15.3742C91.5517 15.3742 91.8729 15.2999 92.1395 15.1515C92.4092 15.003 92.6138 14.809 92.7532 14.5696C92.8956 14.3272 92.9668 14.0681 92.9668 13.7924V12.8924C92.9183 12.9408 92.8244 12.9863 92.685 13.0287C92.5486 13.0681 92.3926 13.103 92.2168 13.1333C92.0411 13.1605 91.8698 13.1863 91.7032 13.2105C91.5365 13.2318 91.3971 13.2499 91.285 13.2651C91.0214 13.2984 90.7805 13.3545 90.5623 13.4333C90.3471 13.5121 90.1744 13.6257 90.0441 13.7742C89.9168 13.9196 89.8532 14.1136 89.8532 14.356C89.8532 14.6924 89.9774 14.9469 90.2259 15.1196C90.4744 15.2893 90.7911 15.3742 91.1759 15.3742ZM96.7452 18.9287C96.5422 18.9287 96.3573 18.9121 96.1907 18.8787C96.024 18.8484 95.8998 18.8151 95.818 18.7787L96.1452 17.6651C96.3937 17.7318 96.6149 17.7605 96.8089 17.7515C97.0028 17.7424 97.174 17.6696 97.3225 17.5333C97.474 17.3969 97.6073 17.1742 97.7225 16.8651L97.8907 16.4015L95.3361 9.32873H96.7907L98.5589 14.7469H98.6316L100.4 9.32873H101.859L98.9816 17.2424C98.8483 17.606 98.6786 17.9136 98.4725 18.1651C98.2664 18.4196 98.021 18.6105 97.7361 18.7378C97.4513 18.8651 97.121 18.9287 96.7452 18.9287Z" fill="#1F1F26"/>
<defs>
<linearGradient id="paint0_linear_1_4858" x1="13.596" y1="1.80194" x2="-2.06386" y2="17.4619" gradientUnits="userSpaceOnUse">
<stop stop-color="#00A0FF"/>
<stop offset="0.00657445" stop-color="#00A1FF"/>
<stop offset="0.2601" stop-color="#00BEFF"/>
<stop offset="0.5122" stop-color="#00D2FF"/>
<stop offset="0.7604" stop-color="#00DFFF"/>
<stop offset="1" stop-color="#00E3FF"/>
</linearGradient>
<linearGradient id="paint1_linear_1_4858" x1="24.8258" y1="12.3382" x2="2.2473" y2="12.3382" gradientUnits="userSpaceOnUse">
<stop stop-color="#FFE000"/>
<stop offset="0.4087" stop-color="#FFBD00"/>
<stop offset="0.7754" stop-color="#FFA500"/>
<stop offset="1" stop-color="#FF9C00"/>
</linearGradient>
<linearGradient id="paint2_linear_1_4858" x1="16.4209" y1="14.4802" x2="-4.81525" y2="35.7164" gradientUnits="userSpaceOnUse">
<stop stop-color="#FF3A44"/>
<stop offset="1" stop-color="#C31162"/>
</linearGradient>
<linearGradient id="paint3_linear_1_4858" x1="0.0636334" y1="-6.16114" x2="9.54651" y2="3.32164" gradientUnits="userSpaceOnUse">
<stop stop-color="#32A071"/>
<stop offset="0.0685" stop-color="#2DA771"/>
<stop offset="0.4762" stop-color="#15CF74"/>
<stop offset="0.8009" stop-color="#06E775"/>
<stop offset="1" stop-color="#00F076"/>
</linearGradient>
<clipPath id="clip0_1_4858">
<rect width="24" height="24" fill="white" transform="translate(0.559998 0.310547)"/>
</clipPath>
</defs>
</svg>
